<svg width="18" height="21" viewBox="0 0 18 21" fill="none" xmlns="http://www.w3.org/2000/svg">
<g id="Vector">
<path d="M7.37995 16.4343C6.96585 16.4343 6.62995 16.0984 6.62995 15.6843V7.1145C6.62995 6.7004 6.96585 6.3645 7.37995 6.3645C7.79405 6.3645 8.12995 6.7004 8.12995 7.1145V15.6843C8.12995 16.0984 7.79405 16.4343 7.37995 16.4343Z" fill="#C6C6C6"/>
<path d="M10.6201 16.4343C10.206 16.4343 9.87015 16.0984 9.87015 15.6843V7.1145C9.87015 6.7004 10.206 6.3645 10.6201 6.3645C11.0342 6.3645 11.3701 6.7004 11.3701 7.1145V15.6843C11.3701 16.0984 11.0342 16.4343 10.6201 16.4343Z" fill="#C6C6C6"/>
<path d="M17.1699 2.9646H13.2197V2.3547C13.2197 1.2961 12.3857 0.434799 11.3603 0.434799H6.62985C5.60445 0.434799 4.76995 1.2961 4.76995 2.3547V2.9646H0.830048C0.415948 2.9646 0.0800476 3.3005 0.0800476 3.7146C0.0800476 4.1287 0.415948 4.4646 0.830048 4.4646H1.43435L2.20165 17.1082C2.31395 19.0467 3.92525 20.5652 5.87015 20.5652H12.1103C14.0537 20.5652 15.6738 19.0447 15.7988 17.1004L16.5666 4.4647H17.1699C17.584 4.4647 17.9199 4.1288 17.9199 3.7147C17.9199 3.3006 17.584 2.9646 17.1699 2.9646ZM6.27005 2.3547C6.27005 2.1233 6.43165 1.9348 6.62995 1.9348H11.3604C11.5586 1.9348 11.7198 2.1233 11.7198 2.3547V2.9646H6.27015L6.27005 2.3547ZM14.3017 17.0066C14.2275 18.1609 13.2646 19.0652 12.1103 19.0652H5.87015C4.71925 19.0652 3.76515 18.1677 3.69875 17.0193L2.93695 4.4646H15.063L14.3017 17.0066Z" fill="#C6C6C6"/>
</g>
</svg>
