<svg width="16" height="15" viewBox="0 0 16 15" fill="none" xmlns="http://www.w3.org/2000/svg">
<path id="Vector" d="M9.419 0.616627C9.0284 0.226027 8.3956 0.226027 8.0049 0.616627C7.6142 1.00723 7.6143 1.64003 8.0049 2.03073L12.4746 6.50043H1.8331C1.2804 6.50043 0.833099 6.94773 0.833099 7.50043C0.833099 8.05313 1.2804 8.50043 1.8331 8.50043H12.4747L8.005 12.9692C7.6144 13.3598 7.6144 13.9926 8.005 14.3833C8.2003 14.5786 8.4562 14.6763 8.712 14.6763C8.9678 14.6763 9.2237 14.5786 9.419 14.3833L14.3672 9.43703C15.4336 8.36863 15.4336 6.63133 14.3662 5.56403L9.419 0.616627Z" fill="black"/>
</svg>
